<?xml version="1.0" encoding="UTF-8"?>
<svg width="20px" height="19px" viewBox="0 0 20 19" version="1.1" xmlns="http://www.w3.org/2000/svg" xmlns:xlink="http://www.w3.org/1999/xlink">
    <title>Shape</title>
    <g id="Layouts" stroke="none" stroke-width="1" fill="none" fill-rule="evenodd">
        <g id="Favoris" transform="translate(-303.000000, -735.000000)" fill="#1BB46B">
            <g id="Toolbar" transform="translate(0.000000, 725.000000)">
                <g id="1" transform="translate(275.000000, 0.000000)">
                    <path d="M29.1254181,10.875 C28.5754181,10.875 28.1254181,11.325 28.1254181,11.875 L28.1254181,27.875 C28.1254181,28.425 28.5754181,28.875 29.1254181,28.875 L32.1254181,28.875 C32.6754181,28.875 33.1254181,28.425 33.1254181,27.875 L33.1254181,11.875 C33.1254181,11.325 32.6754181,10.875 32.1254181,10.875 L29.1254181,10.875 Z M43.1254181,10.875 C42.5754181,10.875 42.1254181,11.325 42.1254181,11.875 L42.1254181,27.875 C42.1254181,28.425 42.5754181,28.875 43.1254181,28.875 L46.1254181,28.875 C46.6754181,28.875 47.1254181,28.425 47.1254181,27.875 L47.1254181,11.875 C47.1254181,11.325 46.6754181,10.875 46.1254181,10.875 L43.1254181,10.875 Z M36.1254181,10.875 C35.5754181,10.875 35.1254181,11.325 35.1254181,11.875 L35.1254181,27.875 C35.1254181,28.425 35.5754181,28.875 36.1254181,28.875 L39.1254181,28.875 C39.6754181,28.875 40.1254181,28.425 40.1254181,27.875 L40.1254181,11.875 C40.1254181,11.325 39.6754181,10.875 39.1254181,10.875 L36.1254181,10.875 Z" id="Shape"></path>
                </g>
            </g>
        </g>
    </g>
</svg>