<?xml version="1.0" encoding="UTF-8"?>
<svg width="19px" height="19px" viewBox="0 0 19 19" version="1.1" xmlns="http://www.w3.org/2000/svg" xmlns:xlink="http://www.w3.org/1999/xlink">
    <title>Shape</title>
    <g id="Layouts" stroke="none" stroke-width="1" fill="none" fill-rule="evenodd">
        <g id="Classements" transform="translate(-53.000000, -735.000000)" fill="#1BB46B">
            <g id="Toolbar" transform="translate(0.000000, 725.000000)">
                <g id="2" transform="translate(25.000000, 0.000000)">
                    <path d="M44.1237458,10.875 L30.1237458,10.875 C29.0237458,10.875 28.1237458,11.775 28.1237458,12.875 L28.1237458,26.875 C28.1237458,27.975 29.0237458,28.875 30.1237458,28.875 L44.1237458,28.875 C45.2237458,28.875 46.1237458,27.975 46.1237458,26.875 L46.1237458,12.875 C46.1237458,11.775 45.2237458,10.875 44.1237458,10.875 L44.1237458,10.875 Z M34.1237458,24.875 L32.1237458,24.875 L32.1237458,17.875 L34.1237458,17.875 L34.1237458,24.875 L34.1237458,24.875 Z M38.1237458,24.875 L36.1237458,24.875 L36.1237458,14.875 L38.1237458,14.875 L38.1237458,24.875 L38.1237458,24.875 Z M42.1237458,24.875 L40.1237458,24.875 L40.1237458,20.875 L42.1237458,20.875 L42.1237458,24.875 L42.1237458,24.875 Z" id="Shape"></path>
                </g>
            </g>
        </g>
    </g>
</svg>