<?xml version="1.0" encoding="UTF-8"?>
<svg width="18px" height="19px" viewBox="0 0 18 19" version="1.1" xmlns="http://www.w3.org/2000/svg" xmlns:xlink="http://www.w3.org/1999/xlink">
    <title>Shape</title>
    <g id="Layouts" stroke="none" stroke-width="1" fill="none" fill-rule="evenodd">
        <g id="Recherche" transform="translate(-179.000000, -736.000000)" fill="#1BB46B">
            <g id="Toolbar" transform="translate(0.000000, 725.000000)">
                <g id="3" transform="translate(150.000000, 0.000000)">
                    <path d="M41.6262375,22.9526042 L40.8362375,22.9526042 L40.5562375,22.6826042 C41.5362375,21.5426042 42.1262375,20.0626042 42.1262375,18.4526042 C42.1262375,14.8626042 39.2162375,11.9526042 35.6262375,11.9526042 C32.0362375,11.9526042 29.1262375,14.8626042 29.1262375,18.4526042 C29.1262375,22.0426042 32.0362375,24.9526042 35.6262375,24.9526042 C37.2362375,24.9526042 38.7162375,24.3626042 39.8562375,23.3826042 L40.1262375,23.6626042 L40.1262375,24.4526042 L45.1262375,29.4426042 L46.6162375,27.9526042 L41.6262375,22.9526042 L41.6262375,22.9526042 Z M35.6262375,22.9526042 C33.1362375,22.9526042 31.1262375,20.9426042 31.1262375,18.4526042 C31.1262375,15.9626042 33.1362375,13.9526042 35.6262375,13.9526042 C38.1162375,13.9526042 40.1262375,15.9626042 40.1262375,18.4526042 C40.1262375,20.9426042 38.1162375,22.9526042 35.6262375,22.9526042 L35.6262375,22.9526042 Z" id="Shape"></path>
                </g>
            </g>
        </g>
    </g>
</svg>