<?xml version="1.0" encoding="UTF-8"?>
<svg width="50px" height="50px" viewBox="0 0 50 50" version="1.1" xmlns="http://www.w3.org/2000/svg" xmlns:xlink="http://www.w3.org/1999/xlink">
    <title>Album</title>
    <g id="Layouts" stroke="none" stroke-width="1" fill="none" fill-rule="evenodd">
        <g id="Recherche" transform="translate(-25.000000, -567.000000)">
            <g id="Group" transform="translate(15.000000, 178.000000)">
                <g id="Table-View" transform="translate(0.000000, 379.000000)">
                    <g id="Album" transform="translate(10.000000, 10.000000)">
                        <rect id="Rectangle-10" stroke="#E6E6E6" fill="#FFFFFF" x="0.5" y="0.5" width="49" height="49" rx="6"></rect>
                        <path d="M25,15 C19.48,15 15,19.48 15,25 C15,30.52 19.48,35 25,35 C30.52,35 35,30.52 35,25 C35,19.48 30.52,15 25,15 L25,15 Z M25,29.5 C22.51,29.5 20.5,27.49 20.5,25 C20.5,22.51 22.51,20.5 25,20.5 C27.49,20.5 29.5,22.51 29.5,25 C29.5,27.49 27.49,29.5 25,29.5 L25,29.5 Z M25,24 C24.45,24 24,24.45 24,25 C24,25.55 24.45,26 25,26 C25.55,26 26,25.55 26,25 C26,24.45 25.55,24 25,24 L25,24 Z" id="Shape" fill="#E6E6E6"></path>
                    </g>
                </g>
            </g>
        </g>
    </g>
</svg>