<?xml version="1.0" encoding="UTF-8"?>
<svg width="13px" height="13px" viewBox="0 0 13 13" version="1.1" xmlns="http://www.w3.org/2000/svg" xmlns:xlink="http://www.w3.org/1999/xlink">
    <title>Icon</title>
    <g id="Layouts" stroke="none" stroke-width="1" fill="none" fill-rule="evenodd">
        <g id="Recherche" transform="translate(-23.000000, -110.000000)" fill="#B9B9B9">
            <g id="Top-Bar" transform="translate(0.000000, 44.000000)">
                <g id="Search-Bar" transform="translate(13.000000, 54.000000)">
                    <path d="M15.0988954,12 C17.9149375,12 20.1977907,14.2828665 20.1977907,17.098925 C20.1977907,18.2310537 19.8288249,19.2770052 19.2045818,20.1230904 L22.7774302,23.6958671 C23.0473821,23.9658205 23.0724789,24.3876979 22.8488389,24.6881452 L22.774281,24.7743631 C22.4755946,25.0730512 21.9945835,25.0763064 21.6957912,24.7775124 L18.1230431,21.2046354 C17.2769628,21.8288821 16.2310174,22.1978501 15.0988954,22.1978501 C12.2828532,22.1978501 10,19.9149836 10,17.098925 C10,14.2828665 12.2828532,12 15.0988954,12 Z M15.0988954,13.019785 C12.8460616,13.019785 11.0197791,14.8460782 11.0197791,17.098925 C11.0197791,19.3517719 12.8460616,21.1780651 15.0988954,21.1780651 C17.3517291,21.1780651 19.1780116,19.3517719 19.1780116,17.098925 C19.1780116,14.8460782 17.3517291,13.019785 15.0988954,13.019785 Z" id="Icon"></path>
                </g>
            </g>
        </g>
    </g>
</svg>