<?xml version="1.0" encoding="UTF-8"?>
<svg width="16px" height="16px" viewBox="0 0 16 16" version="1.1" xmlns="http://www.w3.org/2000/svg" xmlns:xlink="http://www.w3.org/1999/xlink">
    <title>Fill 1</title>
    <g id="Layouts" stroke="none" stroke-width="1" fill="none" fill-rule="evenodd">
        <g id="Recherche" transform="translate(-331.000000, -108.000000)" fill="#B9B9B9">
            <g id="Top-Bar" transform="translate(0.000000, 44.000000)">
                <g id="Search-Bar" transform="translate(13.000000, 54.000000)">
                    <path d="M329.267,20.225 C329.558,20.518 329.556,20.993 329.263,21.284 C329.118,21.428 328.927,21.5 328.736,21.5 C328.544,21.5 328.351,21.426 328.205,21.28 L325.997,19.059 L323.776,21.268 C323.63,21.412 323.44,21.485 323.248,21.485 C323.057,21.485 322.864,21.411 322.718,21.264 C322.427,20.972 322.429,20.497 322.722,20.206 L324.943,17.998 L322.734,15.776 C322.442,15.484 322.444,15.009 322.738,14.718 C323.029,14.426 323.504,14.428 323.795,14.722 L326.003,16.943 L328.226,14.735 C328.517,14.443 328.992,14.445 329.284,14.739 C329.575,15.031 329.573,15.505 329.28,15.796 L327.058,18.004 L329.267,20.225 Z M326,10 C321.582,10 318,13.582 318,18 C318,22.419 321.582,26 326,26 C330.419,26 334,22.419 334,18 C334,13.582 330.419,10 326,10 L326,10 Z" id="Fill-1"></path>
                </g>
            </g>
        </g>
    </g>
</svg>